0
SECTION
2
HEADER
9
$INSUNITS
70
4
9
$ACADVER
1
AC1014
9
$HANDSEED
5
FFFF
0
ENDSEC
0
SECTION
2
TABLES
0
TABLE
2
VPORT
5
8
100
AcDbSymbolTable
0
ENDTAB
0
TABLE
2
LTYPE
5
5
100
AcDbSymbolTable
0
LTYPE
5
14
100
AcDbSymbolTableRecord
100
AcDbLinetypeTableRecord
2
BYBLOCK
70
0
0
LTYPE
5
15
100
AcDbSymbolTableRecord
100
AcDbLinetypeTableRecord
2
BYLAYER
70
0
0
ENDTAB
0
TABLE
2
LAYER
5
2
100
AcDbSymbolTable
70
2
0
LAYER
5
50
100
AcDbSymbolTableRecord
100
AcDbLayerTableRecord
2
0
70
0
6
CONTINUOUS
0
ENDTAB
0
TABLE
2
STYLE
5
3
100
AcDbSymbolTable
70
1
0
STYLE
5
11
100
AcDbSymbolTableRecord
100
AcDbTextStyleTableRecord
2
STANDARD
70
0
0
ENDTAB
0
TABLE
2
VIEW
5
6
100
AcDbSymbolTable
70
0
0
ENDTAB
0
TABLE
2
UCS
5
7
100
AcDbSymbolTable
70
0
0
ENDTAB
0
TABLE
2
APPID
5
9
100
AcDbSymbolTable
70
2
0
APPID
5
12
100
AcDbSymbolTableRecord
100
AcDbRegAppTableRecord
2
ACAD
70
0
0
ENDTAB
0
TABLE
2
DIMSTYLE
5
A
100
AcDbSymbolTable
70
1
0
ENDTAB
0
TABLE
2
BLOCK_RECORD
5
1
100
AcDbSymbolTable
70
1
0
BLOCK_RECORD
5
1F
100
AcDbSymbolTableRecord
100
AcDbBlockTableRecord
2
*MODEL_SPACE
0
BLOCK_RECORD
5
1B
100
AcDbSymbolTableRecord
100
AcDbBlockTableRecord
2
*PAPER_SPACE
0
ENDTAB
0
ENDSEC
0
SECTION
2
BLOCKS
0
BLOCK
5
20
100
AcDbEntity
100
AcDbBlockBegin
2
*MODEL_SPACE
0
ENDBLK
5
21
100
AcDbEntity
100
AcDbBlockEnd
0
BLOCK
5
1C
100
AcDbEntity
100
AcDbBlockBegin
2
*PAPER_SPACE
0
ENDBLK
5
1D
100
AcDbEntity
100
AcDbBlockEnd
0
ENDSEC
0
SECTION
2
ENTITIES
0
LWPOLYLINE
5
100
100
AcDbEntity
8
0
100
AcDbPolyline
90
4
70
1
43
0.0
10
49.5
20
40.75
10
-49.5
20
40.75
10
-49.5
20
-40.75
10
49.5
20
-40.75
0
LINE
5
101
100
AcDbEntity
8
0
100
AcDbLine
10
2.2204460492503131e-15
20
40.75
30
0
11
0
21
0
31
0
0
LINE
5
102
100
AcDbEntity
8
0
100
AcDbLine
10
0
20
0
30
0
11
49.5
21
0
31
0
0
CIRCLE
5
103
100
AcDbEntity
8
0
100
AcDbCircle
10
-46.25
20
37.5
30
0
40
1.5000000000000016
210
0
220
0
230
1
0
CIRCLE
5
104
100
AcDbEntity
8
0
100
AcDbCircle
10
46.25
20
37.5
30
0
40
1.5000000000000033
210
0
220
0
230
1
0
CIRCLE
5
105
100
AcDbEntity
8
0
100
AcDbCircle
10
46.25
20
-37.5
30
0
40
1.5000000000000031
210
0
220
0
230
1
0
CIRCLE
5
106
100
AcDbEntity
8
0
100
AcDbCircle
10
-46.25
20
-37.5
30
0
40
1.5000000000000002
210
0
220
0
230
1
0
LINE
5
107
100
AcDbEntity
8
0
100
AcDbLine
10
-46.25
20
37.5
30
0
11
46.25
21
37.5
31
0
0
LINE
5
108
100
AcDbEntity
8
0
100
AcDbLine
10
-46.25
20
-37.5
30
0
11
46.25
21
-37.5
31
0
0
LINE
5
109
100
AcDbEntity
8
0
100
AcDbLine
10
-46.25
20
-37.5
30
0
11
-46.25
21
37.5
31
0
0
LINE
5
110
100
AcDbEntity
8
0
100
AcDbLine
10
34.5
20
40.75
30
0
11
34.5
21
-40.75
31
0
0
LINE
5
111
100
AcDbEntity
8
0
100
AcDbLine
10
38.5
20
40.75
30
0
11
38.5
21
-40.75
31
0
0
LINE
5
112
100
AcDbEntity
8
0
100
AcDbLine
10
49.5
20
-5.7500000000000018
30
0
11
8.9787027053209734
21
-5.7500000000000018
31
0
0
CIRCLE
5
113
100
AcDbEntity
8
0
100
AcDbCircle
10
38.800000000000011
20
-9.7500000000000036
30
0
40
4.5
210
0
220
0
230
1
0
LWPOLYLINE
5
114
100
AcDbEntity
8
0
100
AcDbPolyline
90
4
70
1
43
0.0
10
41.299999999999997
20
30.950000000000003
10
51.299999999999997
20
30.950000000000003
10
51.299999999999997
20
17.449999999999999
10
41.299999999999997
20
17.449999999999999
0
LWPOLYLINE
5
115
100
AcDbEntity
8
0
100
AcDbPolyline
90
4
70
1
43
0.0
10
43.600000000000001
20
4.8500000000000023
10
51.299999999999997
20
4.8500000000000023
10
51.299999999999997
20
-4.2499999999999982
10
43.600000000000001
20
-4.2499999999999982
0
LWPOLYLINE
5
116
100
AcDbEntity
8
0
100
AcDbPolyline
90
4
70
1
43
0.0
10
42.5
20
-16.550000000000004
10
49.5
20
-16.550000000000004
10
49.5
20
-24.050000000000004
10
42.5
20
-24.050000000000004
0
CIRCLE
5
117
100
AcDbEntity
8
0
100
AcDbCircle
10
-46.25
20
-37.5
30
0
40
2.2499999999999987
210
0
220
0
230
1
0
CIRCLE
5
118
100
AcDbEntity
8
0
100
AcDbCircle
10
-46.25
20
37.5
30
0
40
2.75
210
0
220
0
230
1
0
CIRCLE
5
119
100
AcDbEntity
8
0
100
AcDbCircle
10
46.25
20
37.5
30
0
40
2.75
210
0
220
0
230
1
0
CIRCLE
5
120
100
AcDbEntity
8
0
100
AcDbCircle
10
46.25
20
-37.5
30
0
40
2.2500000000000013
210
0
220
0
230
1
0
LINE
5
121
100
AcDbEntity
8
0
100
AcDbLine
10
-46.25
20
-39.75
30
0
11
-50.500000000000007
21
-39.75
31
0
0
LWPOLYLINE
5
122
100
AcDbEntity
8
0
100
AcDbPolyline
90
4
70
1
43
0.0
10
-46.25
20
34.75
10
-46.25
20
-35.25
10
46.25
20
-35.25
10
46.25
20
34.75
0
LINE
5
123
100
AcDbEntity
8
0
100
AcDbLine
10
46.25
20
-35.25
30
0
11
46.249999999999993
21
34.75
31
0
0
LINE
5
124
100
AcDbEntity
8
0
100
AcDbLine
10
48.500000000000007
20
-37.5
30
0
11
49.5
21
-37.500000558793133
31
0
0
LINE
5
125
100
AcDbEntity
8
0
100
AcDbLine
10
43.5
20
37.5
30
0
11
-43.5
21
37.5
31
0
0
LINE
5
126
100
AcDbEntity
8
0
100
AcDbLine
10
-49
20
37.5
30
0
11
-49.500000737607479
21
37.5
31
0
0
LINE
5
127
100
AcDbEntity
8
0
100
AcDbLine
10
49
20
37.500000000625434
30
0
11
49.5
21
37.500000277349386
31
0
0
LINE
5
128
100
AcDbEntity
8
0
100
AcDbLine
10
-49.500000737607479
20
37.5
30
0
11
-50.50000075250864
21
37.5
31
0
0
LINE
5
129
100
AcDbEntity
8
0
100
AcDbLine
10
46.249999999999993
20
33
30
0
11
49.5
21
33
31
0
0
LINE
5
130
100
AcDbEntity
8
0
100
AcDbLine
10
-46.25
20
32.5
30
0
11
-50.500000000000007
21
32.5
31
0
0
LWPOLYLINE
5
131
100
AcDbEntity
8
0
100
AcDbPolyline
90
4
70
1
43
0.0
10
-17.400000029802317
20
-31.270000000000003
10
-27.400000000000002
20
-31.270000000000003
10
-27.399999999999999
20
-33.75
10
-17.400000029802317
20
-33.75
0
CIRCLE
5
132
100
AcDbEntity
8
0
100
AcDbCircle
10
38.800000000000011
20
-9.7500000000000036
30
0
40
3.4999999999999973
210
0
220
0
230
1
0
LINE
5
133
100
AcDbEntity
8
0
100
AcDbLine
10
49.5
20
-24.050000000000004
30
0
11
44.000000655651093
21
-24.050000000000004
31
0
0
LINE
5
134
100
AcDbEntity
8
0
100
AcDbLine
10
51.299999999999997
20
-4.2499999999999982
30
0
11
45.000000670552254
21
-4.2499999999999991
31
0
0
LINE
5
135
100
AcDbEntity
8
0
100
AcDbLine
10
51.299999999999997
20
31.000000059604645
30
0
11
51.299999999999997
21
-3.0000000447034836
31
0
0
LINE
5
136
100
AcDbEntity
8
0
100
AcDbLine
10
49.5
20
30.950000000000003
30
0
11
43.000000640749931
21
30.950000000000003
31
0
0
LINE
5
137
100
AcDbEntity
8
0
100
AcDbLine
10
42.300000000000004
20
-6.3469441892674228
30
0
11
42.300000000000004
21
-13.518087684950642
31
0
0
LINE
5
138
100
AcDbEntity
8
0
100
AcDbLine
10
36.000000536441803
20
-13.250000000000002
30
0
11
41.000000610947609
21
-13.250000000000002
31
0
0
ENDSEC
0
SECTION
2
OBJECTS
0
DICTIONARY
5
C
100
AcDbDictionary
3
ACAD_GROUP
350
D
3
ACAD_MLINESTYLE
350
17
0
DICTIONARY
5
D
100
AcDbDictionary
0
DICTIONARY
5
1A
330
C
100
AcDbDictionary
0
DICTIONARY
5
17
100
AcDbDictionary
0
ENDSEC
0
EOF
